<svg xmlns="http://www.w3.org/2000/svg" viewBox="0 0 64 64" width="64px" height="64px" style="color: inherit;"><path d="M32,6C17.642,6,6,17.642,6,32c0,14.359,11.642,26,26,26s26-11.641,26-26C58,17.642,46.359,6,32,6z M32,52	c-11.027,0-20-8.973-20-20c0-11.027,8.973-20,20-20s20,8.973,20,20C52,43.027,43.027,52,32,52z" style="fill: currentColor;"/><path d="M32,22c-5.523,0-10,4.477-10,10s4.477,10,10,10s10-4.477,10-10S37.523,22,32,22z M32,38c-3.314,0-6-2.686-6-6	s2.686-6,6-6s6,2.686,6,6S35.314,38,32,38z" style="fill: currentColor;"/><circle cx="44" cy="20" r="2" style="fill: currentColor;"/></svg>