<svg xmlns="http://www.w3.org/2000/svg" viewBox="0 0 64 64" width="64px" height="64px" style="color: inherit;"><path d="M32,6C17.642,6,6,17.642,6,32c0,14.359,11.642,26,26,26s26-11.641,26-26C58,17.642,46.359,6,32,6z M32,52	c-11.027,0-20-8.973-20-20c0-11.027,8.973-20,20-20s20,8.973,20,20C52,43.027,43.027,52,32,52z" style="fill: currentColor;"/><path d="M24,28h-4v12h4V28z M22,26c1.105,0,2-0.895,2-2s-0.895-2-2-2s-2,0.895-2,2S20.895,26,22,26z" style="fill: currentColor;"/><path d="M40,28h-4v12h4V28z M38,26c1.105,0,2-0.895,2-2s-0.895-2-2-2s-2,0.895-2,2S36.895,26,38,26z" style="fill: currentColor;"/><path d="M32,28h-4v12h4V28z M30,26c1.105,0,2-0.895,2-2s-0.895-2-2-2s-2,0.895-2,2S28.895,26,30,26z" style="fill: currentColor;"/></svg>